<svg xmlns="http://www.w3.org/2000/svg" width="32" height="32">
    <path fill="none" d="M-.007-.006h32v32h-32v-32z"/>
    <path fill-rule="evenodd" fill="#222" d="M23.994 12.997h-2.666l-.667 6h3.333c.553 0 1.002.448 1.002 1s-.449 1-1.002 1h-3.555l-.444 4a1 1 0 0 1-1.999 0l.444-4h-6.001l-.444 4a1 1 0 1 1-2 0l.444-4H7.996a1.001 1.001 0 0 1 0-2h2.666l.666-6H7.996a1 1 0 1 1 0-2h3.554l.445-4a1 1 0 0 1 2 0l-.444 4h5.999l.445-4a1 1 0 1 1 2 0l-.445 4h2.444a1 1 0 1 1 0 2zm-10.666 0-.667 6h6.001l.666-6h-6z"/>
</svg>
