<svg xmlns="http://www.w3.org/2000/svg" width="32" height="32">
    <path opacity=".502" fill="none" d="M-.006-.006h32v32h-32v-32z"/>
    <path fill-rule="evenodd" fill="#5B5F6E" d="M23.992 12.996h-2.667l-.667 6h3.334a1.001 1.001 0 0 1 0 2h-3.556l-.444 4a1 1 0 0 1-1.999 0l.445-4h-6.002l-.445 4a1 1 0 1 1-1.998 0l.444-4H7.992a1.001 1.001 0 0 1 0-2h2.667l.666-6H7.992a1.001 1.001 0 0 1 0-2.001h3.555l.444-3.999a1.002 1.002 0 0 1 2.001 0l-.445 3.999h6.001l.444-3.999a1 1 0 1 1 2 0l-.445 3.999h2.445a1.001 1.001 0 0 1 0 2.001zm-10.667 0-.667 6h6.002l.666-6h-6.001z"/>
</svg>
