<svg xmlns="http://www.w3.org/2000/svg" width="32" height="32">
    <path opacity=".502" fill="none" d="M-.007-.006h32v32h-32v-32z"/>
    <path fill-rule="evenodd" fill="#5B5F6E" d="M23.993 12.996h-2.667l-.667 6h3.334a1 1 0 0 1 0 2h-3.556l-.445 3.999a1 1 0 1 1-1.998 0l.444-3.999h-6.002l-.445 3.999a.999.999 0 1 1-1.998 0l.444-3.999H7.993a1 1 0 0 1 0-2h2.666l.666-6H7.993a1 1 0 0 1 0-2h3.554l.444-4a1 1 0 1 1 2.001 0l-.444 4h6l.444-4a1 1 0 1 1 2 0l-.444 4h2.445a1 1 0 0 1 0 2zm-10.668 0-.667 6h6.002l.666-6h-6.001z"/>
</svg>
