<svg xmlns="http://www.w3.org/2000/svg" viewBox="0 0 22.2 21.2">
    <path d="M13.96 4.41H4.42C2.32 4.41.61 6.11.6 8.2h0v5.73c0 2.11 1.71 3.81 3.82 3.81h1.91l2.86 2.85 2.91-2.85h1.91c2.11 0 3.82-1.71 3.82-3.81V8.21c0-2.1-1.71-3.8-3.81-3.8h-.06z" style="fill:none;stroke:#141820;stroke-width:1.2px;stroke-linecap:round;stroke-linejoin:round"/>
    <path d="M17.78 13.93c2.11 0 3.82-1.71 3.82-3.81V4.41C21.6 2.3 19.89.6 17.78.6H8.24C6.13.6 4.42 2.31 4.42 4.41" style="stroke-miterlimit:10;fill:none;stroke:#141820;stroke-width:1.2px"/>
    <path style="fill:none;stroke:#141820;stroke-width:1.2px;stroke-linecap:round;stroke-linejoin:round" d="M4.88 11.08h1M8.7 11.08h1M12.5 11.08h1"/>
</svg>
