<svg xmlns="http://www.w3.org/2000/svg" width="32" height="32">
    <path opacity=".502" fill="none" d="M-.007-.006h32v32h-32v-32z"/>
    <path fill-rule="evenodd" fill="#141820" d="M23.993 12.997h-2.667l-.666 6h3.333a1 1 0 0 1 0 1.999h-3.555l-.445 4a1 1 0 1 1-1.999 0l.444-4h-6.001l-.445 4a1 1 0 1 1-1.999 0l.444-4H7.993a1 1 0 1 1 0-1.999h2.666l.667-6H7.993a1 1 0 0 1 0-2h3.555l.444-4a1 1 0 1 1 2.001 0l-.445 4h6.001l.444-4a1 1 0 1 1 2 0l-.445 4h2.445a1 1 0 0 1 0 2zm-10.667 0-.667 6h6.001l.667-6h-6.001z"/>
</svg>
