<svg xmlns="http://www.w3.org/2000/svg" viewBox="0 0 15 14.56">
    <path d="M9.41 3.05H3.05A2.55 2.55 0 0 0 .5 5.58V9.4c0 1.41 1.14 2.55 2.55 2.55h1.27l1.91 1.91 1.94-1.91h1.27c1.41 0 2.55-1.14 2.55-2.55V5.58c0-1.4-1.14-2.54-2.54-2.54h-.04z" style="fill:none;stroke:#222;stroke-miterlimit:10"/>
    <path d="M11.95 9.41c1.41 0 2.55-1.14 2.55-2.55V3.05C14.5 1.64 13.36.5 11.95.5H5.59C4.18.5 3.04 1.64 3.04 3.05M3.05 7.5h1.27M5.59 7.5h1.28M8.13 7.5h1.28" style="fill:none;stroke:#222;stroke-miterlimit:10"/>
</svg>
