<svg xmlns="http://www.w3.org/2000/svg" viewBox="0 0 23.2 18.2">
    <path d="M20.54.6H2.66C1.53.6.6 1.61.6 2.85v12.5c0 1.24.93 2.25 2.06 2.25h17.88c1.13 0 2.06-1.01 2.06-2.25V2.85c0-1.24-.93-2.25-2.06-2.25z" style="fill:none;stroke:#141820;stroke-miterlimit:10;stroke-width:1.2px"/>
    <path d="M3.94 12.13c.59-.98 1.66-1.76 2.94-1.76s2.35.69 2.94 1.76m-1.4-5.26a1.52 1.52 0 1 1-3.041.001A1.52 1.52 0 0 1 8.42 6.87zM12.41 6.25h6.85M12.41 8.75h6.85M12.41 11.24h2.74" style="fill:none;stroke:#141820;stroke-miterlimit:10;stroke-width:1.2px;stroke-linecap:round"/>
</svg>
