<svg xmlns="http://www.w3.org/2000/svg" width="73.5" height="47.5">
    <path fill-rule="evenodd" stroke="#C9CCD4" fill="#FFF" d="M4.5.5h64a4 4 0 0 1 4 4v37.995a4 4 0 0 1-4 4h-64a4 4 0 0 1-4-4V4.5a4 4 0 0 1 4-4z"/>
    <path fill-rule="evenodd" stroke="#C9CCD4" fill="#FFF" d="M42.5.5h-36a6 6 0 0 0-6 6v33.995a6 6 0 0 0 6 6h36V.5z"/>
    <path fill-rule="evenodd" stroke="#C9CCD4" fill="#EDF0F6" d="M24.509 9.491h-24v10.001h24V9.491z"/>
    <path fill-rule="evenodd" stroke="#C9CCD4" fill="#EDF0F6" d="M24.509.492h-20a4 4 0 0 0-4 4v6h24v-10zM24.509 18.492h-24v10h24v-10z"/>
    <path fill-rule="evenodd" stroke="#C9CCD4" fill="#EDF0F6" d="M24.509 27.492h-24v10h24v-10z"/>
    <path fill-rule="evenodd" stroke="#C9CCD4" fill="#EDF0F6" d="M24.509 36.492h-24v6a4 4 0 0 0 4 4h20v-10z"/>
    <path fill-rule="evenodd" fill="#E3E9F5" d="M67.502 3.505h-14a2 2 0 0 0-2 2v1a2 2 0 0 0 2 2h14a2 2 0 0 0 2-2v-1a2 2 0 0 0-2-2z"/>
    <path fill-rule="evenodd" fill="#5275EB" d="M60.495 10.501H46.496a2 2 0 0 0-2.001 2v1a2 2 0 0 0 2.001 2h13.999a2 2 0 0 0 2.001-2v-1a2 2 0 0 0-2.001-2zM60.495 24.501H46.496a2 2 0 0 0-2.001 2v1a2 2 0 0 0 2.001 2h13.999a2 2 0 0 0 2.001-2v-1a2 2 0 0 0-2.001-2zM60.495 38.501H46.496a2 2 0 0 0-2.001 2v1a2 2 0 0 0 2.001 2h13.999a2 2 0 0 0 2.001-2v-1a2 2 0 0 0-2.001-2z"/>
    <path fill-rule="evenodd" fill="#E3E9F5" d="M67.502 17.497h-14a2 2 0 0 0-2 2v1a2 2 0 0 0 2 2h14a2 2 0 0 0 2-2v-1a2 2 0 0 0-2-2zM67.502 31.497h-14a2 2 0 0 0-2 2v1a2 2 0 0 0 2 2h14a2 2 0 0 0 2-2v-1a2 2 0 0 0-2-2z"/>
</svg>
