<svg xmlns="http://www.w3.org/2000/svg" width="73.5" height="47.5">
    <path fill-rule="evenodd" stroke="#C9CCD4" fill="#FFF" d="M4.5.5h64a4 4 0 0 1 4 4v37.995a4 4 0 0 1-4 4h-64a4 4 0 0 1-4-4V4.5a4 4 0 0 1 4-4z"/>
    <path fill-rule="evenodd" stroke="#C9CCD4" fill="#EDF0F6" d="M30.485.5h24v46h-24V.5z"/>
    <path fill-rule="evenodd" stroke="#C9CCD4" fill="#EDF0F6" d="M30.49 9.491h24.001v10.001H30.49V9.491z"/>
    <path fill-rule="evenodd" stroke="#C9CCD4" fill="#EDF0F6" d="M30.49.492h24.001v10H30.49v-10zM30.49 18.492h24.001v10H30.49v-10z"/>
    <path fill-rule="evenodd" stroke="#C9CCD4" fill="#EDF0F6" d="M30.49 27.492h24.001v10H30.49v-10z"/>
    <path fill-rule="evenodd" stroke="#C9CCD4" fill="#EDF0F6" d="M30.49 36.492h24.001v10H30.49v-10z"/>
    <path fill-rule="evenodd" fill="#E3E9F5" d="M5.497 3.505h14a2 2 0 0 1 2 2v1a2 2 0 0 1-2 2h-14a2 2 0 0 1-2-2v-1a2 2 0 0 1 2-2z"/>
    <path fill-rule="evenodd" fill="#5275EB" d="M12.504 10.501h14a2 2 0 0 1 2 2v1a2 2 0 0 1-2 2h-14a2 2 0 0 1-2-2v-1a2 2 0 0 1 2-2zM12.504 24.501h14a2 2 0 0 1 2 2v1a2 2 0 0 1-2 2h-14a2 2 0 0 1-2-2v-1a2 2 0 0 1 2-2zM12.504 38.501h14a2 2 0 0 1 2 2v1a2 2 0 0 1-2 2h-14a2 2 0 0 1-2-2v-1a2 2 0 0 1 2-2z"/>
    <path fill-rule="evenodd" fill="#E3E9F5" d="M5.497 17.497h14a2 2 0 0 1 2 2v1a2 2 0 0 1-2 2h-14a2 2 0 0 1-2-2v-1a2 2 0 0 1 2-2zM5.497 31.497h14a2 2 0 0 1 2 2v1a2 2 0 0 1-2 2h-14a2 2 0 0 1-2-2v-1a2 2 0 0 1 2-2z"/>
</svg>
