<svg xmlns="http://www.w3.org/2000/svg" width="97.5" height="61.5">
    <path fill-rule="evenodd" stroke="#C4C9CE" fill="#EDF0F6" d="M4.508.5h28v60.001h-28a4 4 0 0 1-4-4V4.5a4 4 0 0 1 4-4z"/>
    <path fill-rule="evenodd" stroke="#C4C9CE" fill="#FFF" d="M64.49.5h28a4 4 0 0 1 4 4v52.001a4 4 0 0 1-4 4h-28V.5z"/>
    <path fill-rule="evenodd" stroke="#5275EB" fill="#5275EB" d="M31.5.5h34v60h-34V.5z"/>
    <path fill-rule="evenodd" fill="#FFF" d="M56.404 21.502v2.65h-.983v-6.104h.983v2.638h.696v.816h-.696zm-7.855 2.051v-4.774h4.737v.792h-3.754v3.166c2.123 0 3.346-.084 4.75-.36l.108.792c-1.476.3-2.747.384-5.002.384h-.839zm4.569 13.201h-3.646v1.631c1.991 0 3.023-.048 4.27-.252l.096.791c-1.319.228-2.411.264-4.558.264h-.767v-3.19h3.646v-1.487h-3.682v-.804h4.641v3.047zm-7.754-12.17h-.983v-6.512h.983v2.77h1.596v.816h-1.596v2.926zm-5.217-3.118a4.492 4.492 0 0 1-2.662 2.722l-.516-.779c1.631-.588 2.675-2.051 2.675-3.694v-1.104h.983v1.188c0 1.451 1.055 2.794 2.603 3.322l-.516.767a4.515 4.515 0 0 1-2.567-2.422zm-.084 12.109c1.631 0 2.819 1.008 2.819 2.471 0 1.487-1.188 2.483-2.819 2.483-1.619 0-2.794-.996-2.794-2.483 0-1.463 1.175-2.471 2.794-2.471zm0 4.138c1.092 0 1.859-.684 1.859-1.667 0-.971-.767-1.655-1.859-1.655-1.067 0-1.835.684-1.835 1.655 0 .983.768 1.667 1.835 1.667zm-1.667-10.862c0-1.26 1.356-1.967 3.55-1.967 2.183 0 3.538.707 3.538 1.967 0 1.247-1.355 1.955-3.538 1.955-2.194 0-3.55-.708-3.55-1.955zm6.105 0c0-.756-.972-1.2-2.555-1.2-1.595 0-2.566.444-2.566 1.2 0 .743.971 1.187 2.566 1.187 1.583 0 2.555-.444 2.555-1.187zm1.343 11.989h-.983v-5.768h.983v5.768zm-5.961 1.847h4.99v-1.319h.971v4.306h-6.932v-4.306h.971v1.319zm0 2.195h4.99v-1.427h-4.99v1.427zm9.769-18.154h6.752v3.934h-6.752v-3.934zm.96 3.142h4.821v-2.362h-4.821v2.362zm6.308 11.81h-.995v-1.991h-2.099v-.791h2.099v-1.44h-2.099v-.803h2.099v-1.583h.995v6.608zm0 4.15h-.995v-2.771h-6.213v-.803h7.208v3.574z"/>
    <path fill-rule="evenodd" fill="#727988" d="M25.404 21.502v2.65h-.983v-6.104h.983v2.638h.696v.816h-.696zm-7.855 2.051v-4.774h4.737v.792h-3.754v3.166c2.123 0 3.346-.084 4.75-.36l.108.792c-1.476.3-2.747.384-5.002.384h-.839zm7.855 1.175v3.934h-6.752v-3.934h6.752zm-5.792 3.142h4.821v-2.362h-4.821v2.362zm1.823 9.975h-3.131v-2.627h6.285v-1.115H18.28v-.768h7.28v2.615h-6.284v1.127h6.512v.768H22.43v1.127h4.378v.804h-9.763v-.804h4.39v-1.127zm-7.071-13.261h-.983v-6.512h.983v2.77h1.596v.816h-1.596v2.926zm-5.217-3.118a4.492 4.492 0 0 1-2.662 2.722l-.516-.779c1.631-.588 2.675-2.051 2.675-3.694v-1.104h.983v1.188c0 1.451 1.055 2.794 2.603 3.322l-.516.767a4.515 4.515 0 0 1-2.567-2.422zm-1.751 5.385c0-1.26 1.356-1.967 3.55-1.967 2.183 0 3.538.707 3.538 1.967 0 1.247-1.355 1.955-3.538 1.955-2.194 0-3.55-.708-3.55-1.955zm6.105 0c0-.756-.972-1.2-2.555-1.2-1.595 0-2.566.444-2.566 1.2 0 .743.971 1.187 2.566 1.187 1.583 0 2.555-.444 2.555-1.187zm-3.106 10.298H7.264v-3.646h7.232v3.646h-3.118v1.368h4.366v.791H6.005v-.791h4.39v-1.368zm3.13-.779v-2.087H8.224v2.087h5.301zm1.019 7.46h-.983v-2.615H7.096v-.791h7.448v3.406zm11.076-.108h-.983v-2.315h-6.501v-.804h7.484v3.119zM81.057 42.438v-.803h4.366V39.32h-3.215v-5.493h.972v1.919h5.493v-1.919h.959v5.493h-3.214v2.315h4.39v.803h-9.751zm7.616-3.909V36.55H83.18v1.979h5.493zm-5.757-13.861h6.956v3.994h-6.956v-3.994zm.96 3.202h5.037v-2.422h-5.037v2.422zm5.013-9.822h.983v6.104h-.983v-6.104zm-7.172 5.289v-4.654h.983v3.826c1.763 0 3.334-.132 5.025-.48l.132.816c-1.787.36-3.406.492-5.265.492h-.875zm-11.712.503h4.378v-1.823h.983v1.823h4.414v.792h-9.775v-.792zm4.869-3.634c-.659 1.296-2.206 2.207-3.837 2.507l-.396-.78c1.919-.299 3.73-1.607 3.73-3.106v-.48h1.007v.48c0 1.499 1.835 2.807 3.718 3.106l-.384.78c-1.619-.312-3.166-1.223-3.838-2.507zm-2.11 14.809v-.372h-2.399v-.792h5.745v.792h-2.363v.372c0 1.379 1.055 2.734 2.615 3.286l-.492.767a4.42 4.42 0 0 1-2.591-2.422 4.654 4.654 0 0 1-2.71 2.734l-.516-.779c1.607-.588 2.711-2.039 2.711-3.586zm-1.5-9.507h.984v2.266h6.428v.804h-7.412v-3.07zm7.616 13.968h-.995v-2.818h-2.123v-.804h2.123v-2.782h.995v6.404zm-3.55.336c2.207 0 3.586.732 3.586 2.003 0 1.271-1.379 2.003-3.586 2.003s-3.586-.732-3.586-2.003c0-1.271 1.379-2.003 3.586-2.003zm0 3.238c1.619 0 2.603-.456 2.603-1.235 0-.78-.984-1.247-2.603-1.247-1.619 0-2.602.467-2.602 1.247 0 .779.983 1.235 2.602 1.235z"/>
</svg>
