<svg xmlns="http://www.w3.org/2000/svg" width="72" height="72" viewBox="0 0 72 72">
    <path data-name="Polygon 1" d="m401.166 324 18.709 18.709v26.457l-18.709 18.709h-26.457L356 369.166v-26.457L374.709 324h26.457z" transform="translate(-352 -320)" style="opacity:.1;fill:#c13437;fill-rule:evenodd"/>
    <path d="M379.515 347.515a2 2 0 0 1 2.828 0l14.142 14.142a2 2 0 1 1-2.828 2.828l-14.142-14.142a2 2 0 0 1 0-2.828z" transform="translate(-352 -320)" style="fill:#c13437;fill-rule:evenodd"/>
    <path d="M396.517 347.515a2 2 0 0 0-2.829 0l-14.142 14.142a2 2 0 0 0 2.828 2.828l14.143-14.142a2 2 0 0 0 0-2.828z" transform="translate(-352 -320)" style="fill:#c13437;fill-rule:evenodd"/>
</svg>
