<svg xmlns="http://www.w3.org/2000/svg" width="524" height="208">
    <path fill-rule="evenodd" fill="#E5E7ED" d="M23.1 174.1H524v1.9H23.1v-1.9z"/>
    <path fill="none" d="M32 183.1h43.1V208H32v-24.9z"/>
    <text font-family="Noto Sans CJK KR" fill="#727988" font-size="13" x="45" y="201">9시</text>
    <text font-family="Roboto" fill="#727988" font-size="13" x="8" y="179">0</text>
    <text font-family="Roboto" fill="#727988" font-size="13" x="1" y="122">10</text>
    <text font-family="Roboto" fill="#727988" font-size="13" y="65">20</text>
    <text font-family="Roboto" fill="#727988" font-size="13" y="9">30</text>
    <path fill="none" d="M76 183.1h43.1V208H76v-24.9z"/>
    <text font-family="Noto Sans CJK KR" fill="#727988" font-size="13" x="86" y="201">10시</text>
    <path fill="none" d="M120 183.1h43.1V208H120v-24.9z"/>
    <text font-family="Noto Sans CJK KR" fill="#727988" font-size="13" x="130" y="201">11시</text>
    <path fill="none" d="M164 183.1h43.1V208H164v-24.9z"/>
    <text font-family="Noto Sans CJK KR" fill="#727988" font-size="13" x="174" y="201">12시</text>
    <path fill="none" d="M208 183.1h43.1V208H208v-24.9z"/>
    <text font-family="Noto Sans CJK KR" fill="#727988" font-size="13" x="218" y="201">13시</text>
    <path fill="none" d="M252 183.1h43.1V208H252v-24.9z"/>
    <text font-family="Noto Sans CJK KR" fill="#727988" font-size="13" x="262" y="201">14시</text>
    <path fill="none" d="M296 183.1h43.1V208H296v-24.9z"/>
    <text font-family="Noto Sans CJK KR" fill="#727988" font-size="13" x="306" y="201">15시</text>
    <path fill="none" d="M340 183.1h43.1V208H340v-24.9z"/>
    <text font-family="Noto Sans CJK KR" fill="#727988" font-size="13" x="350" y="201">16시</text>
    <path fill="none" d="M384 183.1h43.1V208H384v-24.9z"/>
    <text font-family="Noto Sans CJK KR" fill="#727988" font-size="13" x="394" y="201">17시</text>
    <path fill="none" d="M428 183.1h43.1V208H428v-24.9z"/>
    <text font-family="Noto Sans CJK KR" fill="#727988" font-size="13" x="438" y="201">18시</text>
    <path fill="none" d="M472 183.1h43.1V208H472v-24.9z"/>
    <text font-family="Noto Sans CJK KR" fill="#727988" font-size="13" x="482" y="201.205">기타</text>
    <path fill-rule="evenodd" fill="#F2F3F7" d="M23.1 117.1H524v1.9H23.1v-1.9zM23.1 60.1H524V62H23.1v-1.9zM23.1 3.1H524V5H23.1V3.1z"/>
    <path fill-rule="evenodd" fill="#446CF3" d="M54 155a6 6 0 0 1 6 6v13.1H47.1V161c0-3.314 3.586-6 6.9-6zM98 74.1c3.314 0 6 3.586 6 6V175H91.1V80.1c0-2.414 3.586-6 6.9-6zM142 135a6 6 0 0 1 6 6v33.1h-12.9V141c0-3.314 3.586-6 6.9-6zM186 74.1c3.314 0 6 3.586 6 6V175h-12.9V80.1c0-2.414 3.586-6 6.9-6zM230 15a6 6 0 0 1 6 6v153.1h-12.9V21c0-3.314 3.586-6 6.9-6zM274 81.1c3.314 0 6 3.586 6 6V175h-12.9V87.1c0-2.414 3.586-6 6.9-6zM318 94.1c3.314 0 6 3.586 6 6V175h-12.9v-74.9c0-2.414 3.586-6 6.9-6zM362 61a6 6 0 0 1 6 6v107.1h-12.9V67c0-3.314 3.586-6 6.9-6zM406 106.1c3.314 0 6 3.586 6 6V175h-12.9v-62.9c0-2.414 3.586-6 6.9-6zM450 144.1c3.314 0 6 3.586 6 6V175h-12.9v-24.9c0-2.414 3.586-6 6.9-6zM494 152.1c3.314 0 6 3.586 6 6V175h-12.9v-16.9c0-2.414 3.586-6 6.9-6z"/>
    <text font-family="Roboto" fill="#3E61E4" font-size="12" x="50" y="151">2</text>
    <text font-family="Roboto" fill="#3E61E4" font-size="12" x="92" y="71">18</text>
    <text font-family="Roboto" fill="#3E61E4" font-size="12" x="139" y="131">8</text>
    <text font-family="Roboto" fill="#3E61E4" font-size="12" x="180" y="71">18</text>
    <text font-family="Roboto" fill="#3E61E4" font-size="12" x="223" y="11">27</text>
    <text font-family="Roboto" fill="#3E61E4" font-size="12" x="268" y="78">17</text>
    <text font-family="Roboto" fill="#3E61E4" font-size="12" x="312" y="91">14</text>
    <text font-family="Roboto" fill="#3E61E4" font-size="12" x="355" y="57">20</text>
    <text font-family="Roboto" fill="#3E61E4" font-size="12" x="400" y="103">12</text>
    <text font-family="Roboto" fill="#3E61E4" font-size="12" x="447" y="141">6</text>
    <text font-family="Roboto" fill="#3E61E4" font-size="12" x="490" y="149">3</text>
</svg>
